<?xml version="1.0" encoding="utf-8" standalone="no"?>
<!DOCTYPE svg PUBLIC "-//W3C//DTD SVG 1.1//EN"
  "http://www.w3.org/Graphics/SVG/1.1/DTD/svg11.dtd">
<svg xmlns:xlink="http://www.w3.org/1999/xlink" width="429.18pt" height="356.93pt" viewBox="0 0 429.18 356.93" xmlns="http://www.w3.org/2000/svg" version="1.1">
 <metadata>
  <rdf:RDF xmlns:dc="http://purl.org/dc/elements/1.1/" xmlns:cc="http://creativecommons.org/ns#" xmlns:rdf="http://www.w3.org/1999/02/22-rdf-syntax-ns#">
   <cc:Work>
    <dc:type rdf:resource="http://purl.org/dc/dcmitype/StillImage"/>
    <dc:date>2025-12-03T22:59:03.610700</dc:date>
    <dc:format>image/svg+xml</dc:format>
    <dc:creator>
     <cc:Agent>
      <dc:title>Matplotlib v3.10.0, https://matplotlib.org/</dc:title>
     </cc:Agent>
    </dc:creator>
   </cc:Work>
  </rdf:RDF>
 </metadata>
 <defs>
  <style type="text/css">*{stroke-linejoin: round; stroke-linecap: butt}</style>
 </defs>
 <g id="figure_1">
  <g id="patch_1">
   <path d="M 0 356.93 
L 429.18 356.93 
L 429.18 0 
L 0 0 
z
" style="fill: #ffffff"/>
  </g>
  <g id="axes_1">
   <g id="patch_2">
    <path d="M 21.2 340.5425 
L 421.98 340.5425 
L 421.98 20.7625 
L 21.2 20.7625 
z
" style="fill: #ffffff"/>
   </g>
   <g id="matplotlib.axis_1">
    <g id="xtick_1">
     <g id="line2d_1">
      <path d="M 61.278 340.5425 
L 61.278 20.7625 
" clip-path="url(#p884ea3cfa8)" style="fill: none; stroke-dasharray: 0.8,1.32; stroke-dashoffset: 0; stroke: #b0b0b0; stroke-opacity: 0.5; stroke-width: 0.8"/>
     </g>
     <g id="line2d_2">
      <defs>
       <path id="m74a69bab40" d="M 0 0 
L 0 -3.5 
" style="stroke: #000000; stroke-width: 0.8"/>
      </defs>
      <g>
       <use xlink:href="#m74a69bab40" x="61.278" y="340.5425" style="stroke: #000000; stroke-width: 0.8"/>
      </g>
     </g>
     <g id="text_1">
      <!-- -4 -->
      <g transform="translate(57.778 348.855) scale(0.07 -0.07)">
       <defs>
        <path id="SimHei-2d" d="M 2975 2125 
L 125 2125 
L 125 2525 
L 2975 2525 
L 2975 2125 
z
" transform="scale(0.015625)"/>
        <path id="SimHei-34" d="M 2000 1100 
L 75 1100 
L 75 1525 
L 2100 4450 
L 2475 4450 
L 2475 1525 
L 3075 1525 
L 3075 1100 
L 2475 1100 
L 2475 150 
L 2000 150 
L 2000 1100 
z
M 2000 1525 
L 2000 3500 
L 600 1525 
L 2000 1525 
z
" transform="scale(0.015625)"/>
       </defs>
       <use xlink:href="#SimHei-2d"/>
       <use xlink:href="#SimHei-34" transform="translate(50 0)"/>
      </g>
     </g>
    </g>
    <g id="xtick_2">
     <g id="line2d_3">
      <path d="M 141.434 340.5425 
L 141.434 20.7625 
" clip-path="url(#p884ea3cfa8)" style="fill: none; stroke-dasharray: 0.8,1.32; stroke-dashoffset: 0; stroke: #b0b0b0; stroke-opacity: 0.5; stroke-width: 0.8"/>
     </g>
     <g id="line2d_4">
      <g>
       <use xlink:href="#m74a69bab40" x="141.434" y="340.5425" style="stroke: #000000; stroke-width: 0.8"/>
      </g>
     </g>
     <g id="text_2">
      <!-- -2 -->
      <g transform="translate(137.934 348.855) scale(0.07 -0.07)">
       <defs>
        <path id="SimHei-32" d="M 300 250 
Q 325 625 650 925 
Q 975 1225 1475 1862 
Q 1975 2500 2125 2850 
Q 2275 3200 2237 3450 
Q 2200 3700 2000 3862 
Q 1800 4025 1537 4000 
Q 1275 3975 1037 3800 
Q 800 3625 675 3275 
L 200 3350 
Q 400 3925 712 4187 
Q 1025 4450 1450 4475 
Q 1700 4500 1900 4462 
Q 2100 4425 2312 4287 
Q 2525 4150 2662 3875 
Q 2800 3600 2762 3212 
Q 2725 2825 2375 2287 
Q 2025 1750 1025 600 
L 2825 600 
L 2825 150 
L 300 150 
L 300 250 
z
" transform="scale(0.015625)"/>
       </defs>
       <use xlink:href="#SimHei-2d"/>
       <use xlink:href="#SimHei-32" transform="translate(50 0)"/>
      </g>
     </g>
    </g>
    <g id="xtick_3">
     <g id="line2d_5">
      <path d="M 221.59 340.5425 
L 221.59 20.7625 
" clip-path="url(#p884ea3cfa8)" style="fill: none; stroke-dasharray: 0.8,1.32; stroke-dashoffset: 0; stroke: #b0b0b0; stroke-opacity: 0.5; stroke-width: 0.8"/>
     </g>
     <g id="line2d_6">
      <g>
       <use xlink:href="#m74a69bab40" x="221.59" y="340.5425" style="stroke: #000000; stroke-width: 0.8"/>
      </g>
     </g>
     <g id="text_3">
      <!-- 0 -->
      <g transform="translate(219.84 348.855) scale(0.07 -0.07)">
       <defs>
        <path id="SimHei-30" d="M 225 2537 
Q 250 3200 412 3587 
Q 575 3975 875 4225 
Q 1175 4475 1612 4475 
Q 2050 4475 2375 4112 
Q 2700 3750 2800 3200 
Q 2900 2650 2862 1937 
Q 2825 1225 2612 775 
Q 2400 325 1975 150 
Q 1550 -25 1125 187 
Q 700 400 525 750 
Q 350 1100 275 1487 
Q 200 1875 225 2537 
z
M 750 2687 
Q 675 2000 800 1462 
Q 925 925 1212 700 
Q 1500 475 1800 612 
Q 2100 750 2237 1162 
Q 2375 1575 2375 2062 
Q 2375 2550 2337 2950 
Q 2300 3350 2112 3675 
Q 1925 4000 1612 4012 
Q 1300 4025 1062 3700 
Q 825 3375 750 2687 
z
" transform="scale(0.015625)"/>
       </defs>
       <use xlink:href="#SimHei-30"/>
      </g>
     </g>
    </g>
    <g id="xtick_4">
     <g id="line2d_7">
      <path d="M 301.746 340.5425 
L 301.746 20.7625 
" clip-path="url(#p884ea3cfa8)" style="fill: none; stroke-dasharray: 0.8,1.32; stroke-dashoffset: 0; stroke: #b0b0b0; stroke-opacity: 0.5; stroke-width: 0.8"/>
     </g>
     <g id="line2d_8">
      <g>
       <use xlink:href="#m74a69bab40" x="301.746" y="340.5425" style="stroke: #000000; stroke-width: 0.8"/>
      </g>
     </g>
     <g id="text_4">
      <!-- 2 -->
      <g transform="translate(299.996 348.855) scale(0.07 -0.07)">
       <use xlink:href="#SimHei-32"/>
      </g>
     </g>
    </g>
    <g id="xtick_5">
     <g id="line2d_9">
      <path d="M 381.902 340.5425 
L 381.902 20.7625 
" clip-path="url(#p884ea3cfa8)" style="fill: none; stroke-dasharray: 0.8,1.32; stroke-dashoffset: 0; stroke: #b0b0b0; stroke-opacity: 0.5; stroke-width: 0.8"/>
     </g>
     <g id="line2d_10">
      <g>
       <use xlink:href="#m74a69bab40" x="381.902" y="340.5425" style="stroke: #000000; stroke-width: 0.8"/>
      </g>
     </g>
     <g id="text_5">
      <!-- 4 -->
      <g transform="translate(380.152 348.855) scale(0.07 -0.07)">
       <use xlink:href="#SimHei-34"/>
      </g>
     </g>
    </g>
   </g>
   <g id="matplotlib.axis_2">
    <g id="ytick_1">
     <g id="line2d_11">
      <path d="M 21.2 340.5425 
L 421.98 340.5425 
" clip-path="url(#p884ea3cfa8)" style="fill: none; stroke-dasharray: 0.8,1.32; stroke-dashoffset: 0; stroke: #b0b0b0; stroke-opacity: 0.5; stroke-width: 0.8"/>
     </g>
     <g id="line2d_12">
      <defs>
       <path id="m3e2c764baa" d="M 0 0 
L 3.5 0 
" style="stroke: #000000; stroke-width: 0.8"/>
      </defs>
      <g>
       <use xlink:href="#m3e2c764baa" x="21.2" y="340.5425" style="stroke: #000000; stroke-width: 0.8"/>
      </g>
     </g>
     <g id="text_6">
      <!-- 0.0 -->
      <g transform="translate(7.2 342.94875) scale(0.07 -0.07)">
       <defs>
        <path id="SimHei-2e" d="M 1075 125 
L 500 125 
L 500 675 
L 1075 675 
L 1075 125 
z
" transform="scale(0.015625)"/>
       </defs>
       <use xlink:href="#SimHei-30"/>
       <use xlink:href="#SimHei-2e" transform="translate(50 0)"/>
       <use xlink:href="#SimHei-30" transform="translate(100 0)"/>
      </g>
     </g>
    </g>
    <g id="ytick_2">
     <g id="line2d_13">
      <path d="M 21.2 279.632024 
L 421.98 279.632024 
" clip-path="url(#p884ea3cfa8)" style="fill: none; stroke-dasharray: 0.8,1.32; stroke-dashoffset: 0; stroke: #b0b0b0; stroke-opacity: 0.5; stroke-width: 0.8"/>
     </g>
     <g id="line2d_14">
      <g>
       <use xlink:href="#m3e2c764baa" x="21.2" y="279.632024" style="stroke: #000000; stroke-width: 0.8"/>
      </g>
     </g>
     <g id="text_7">
      <!-- 0.2 -->
      <g transform="translate(7.2 282.038274) scale(0.07 -0.07)">
       <use xlink:href="#SimHei-30"/>
       <use xlink:href="#SimHei-2e" transform="translate(50 0)"/>
       <use xlink:href="#SimHei-32" transform="translate(100 0)"/>
      </g>
     </g>
    </g>
    <g id="ytick_3">
     <g id="line2d_15">
      <path d="M 21.2 218.721548 
L 421.98 218.721548 
" clip-path="url(#p884ea3cfa8)" style="fill: none; stroke-dasharray: 0.8,1.32; stroke-dashoffset: 0; stroke: #b0b0b0; stroke-opacity: 0.5; stroke-width: 0.8"/>
     </g>
     <g id="line2d_16">
      <g>
       <use xlink:href="#m3e2c764baa" x="21.2" y="218.721548" style="stroke: #000000; stroke-width: 0.8"/>
      </g>
     </g>
     <g id="text_8">
      <!-- 0.4 -->
      <g transform="translate(7.2 221.127798) scale(0.07 -0.07)">
       <use xlink:href="#SimHei-30"/>
       <use xlink:href="#SimHei-2e" transform="translate(50 0)"/>
       <use xlink:href="#SimHei-34" transform="translate(100 0)"/>
      </g>
     </g>
    </g>
    <g id="ytick_4">
     <g id="line2d_17">
      <path d="M 21.2 157.811071 
L 421.98 157.811071 
" clip-path="url(#p884ea3cfa8)" style="fill: none; stroke-dasharray: 0.8,1.32; stroke-dashoffset: 0; stroke: #b0b0b0; stroke-opacity: 0.5; stroke-width: 0.8"/>
     </g>
     <g id="line2d_18">
      <g>
       <use xlink:href="#m3e2c764baa" x="21.2" y="157.811071" style="stroke: #000000; stroke-width: 0.8"/>
      </g>
     </g>
     <g id="text_9">
      <!-- 0.6 -->
      <g transform="translate(7.2 160.217321) scale(0.07 -0.07)">
       <defs>
        <path id="SimHei-36" d="M 250 1612 
Q 275 1975 387 2225 
Q 500 2475 725 2850 
L 1750 4450 
L 2325 4450 
L 1275 2800 
Q 1950 2975 2350 2750 
Q 2750 2525 2887 2237 
Q 3025 1950 3037 1612 
Q 3050 1275 2937 950 
Q 2825 625 2537 362 
Q 2250 100 1737 75 
Q 1225 50 862 262 
Q 500 475 362 862 
Q 225 1250 250 1612 
z
M 1025 787 
Q 1250 550 1625 525 
Q 2000 500 2250 775 
Q 2500 1050 2500 1575 
Q 2500 2100 2187 2300 
Q 1875 2500 1487 2450 
Q 1100 2400 925 2075 
Q 750 1750 775 1387 
Q 800 1025 1025 787 
z
" transform="scale(0.015625)"/>
       </defs>
       <use xlink:href="#SimHei-30"/>
       <use xlink:href="#SimHei-2e" transform="translate(50 0)"/>
       <use xlink:href="#SimHei-36" transform="translate(100 0)"/>
      </g>
     </g>
    </g>
    <g id="ytick_5">
     <g id="line2d_19">
      <path d="M 21.2 96.900595 
L 421.98 96.900595 
" clip-path="url(#p884ea3cfa8)" style="fill: none; stroke-dasharray: 0.8,1.32; stroke-dashoffset: 0; stroke: #b0b0b0; stroke-opacity: 0.5; stroke-width: 0.8"/>
     </g>
     <g id="line2d_20">
      <g>
       <use xlink:href="#m3e2c764baa" x="21.2" y="96.900595" style="stroke: #000000; stroke-width: 0.8"/>
      </g>
     </g>
     <g id="text_10">
      <!-- 0.8 -->
      <g transform="translate(7.2 99.306845) scale(0.07 -0.07)">
       <defs>
        <path id="SimHei-38" d="M 175 1375 
Q 175 1675 325 1962 
Q 475 2250 825 2425 
Q 525 2600 425 2812 
Q 325 3025 312 3300 
Q 300 3575 387 3775 
Q 475 3975 650 4150 
Q 825 4325 1037 4387 
Q 1250 4450 1500 4450 
Q 1750 4450 1950 4400 
Q 2150 4350 2375 4187 
Q 2600 4025 2700 3725 
Q 2800 3425 2687 3025 
Q 2575 2625 2100 2400 
Q 2525 2275 2700 2012 
Q 2875 1750 2875 1375 
Q 2875 1000 2762 775 
Q 2650 550 2512 400 
Q 2375 250 2137 162 
Q 1900 75 1537 75 
Q 1175 75 912 162 
Q 650 250 475 425 
Q 300 600 237 837 
Q 175 1075 175 1375 
z
M 687 1400 
Q 675 1100 787 875 
Q 900 650 1200 587 
Q 1500 525 1825 600 
Q 2150 675 2275 950 
Q 2400 1225 2362 1500 
Q 2325 1775 2050 1962 
Q 1775 2150 1450 2125 
Q 1125 2100 912 1900 
Q 700 1700 687 1400 
z
M 775 3350 
Q 775 3100 950 2875 
Q 1125 2650 1500 2650 
Q 1875 2650 2062 2875 
Q 2250 3100 2237 3412 
Q 2225 3725 2012 3875 
Q 1800 4025 1437 4000 
Q 1075 3975 925 3787 
Q 775 3600 775 3350 
z
" transform="scale(0.015625)"/>
       </defs>
       <use xlink:href="#SimHei-30"/>
       <use xlink:href="#SimHei-2e" transform="translate(50 0)"/>
       <use xlink:href="#SimHei-38" transform="translate(100 0)"/>
      </g>
     </g>
    </g>
    <g id="ytick_6">
     <g id="line2d_21">
      <path d="M 21.2 35.990119 
L 421.98 35.990119 
" clip-path="url(#p884ea3cfa8)" style="fill: none; stroke-dasharray: 0.8,1.32; stroke-dashoffset: 0; stroke: #b0b0b0; stroke-opacity: 0.5; stroke-width: 0.8"/>
     </g>
     <g id="line2d_22">
      <g>
       <use xlink:href="#m3e2c764baa" x="21.2" y="35.990119" style="stroke: #000000; stroke-width: 0.8"/>
      </g>
     </g>
     <g id="text_11">
      <!-- 1.0 -->
      <g transform="translate(7.2 38.396369) scale(0.07 -0.07)">
       <defs>
        <path id="SimHei-31" d="M 1400 3600 
Q 1075 3275 575 2975 
L 575 3450 
Q 1200 3875 1600 4450 
L 1900 4450 
L 1900 150 
L 1400 150 
L 1400 3600 
z
" transform="scale(0.015625)"/>
       </defs>
       <use xlink:href="#SimHei-31"/>
       <use xlink:href="#SimHei-2e" transform="translate(50 0)"/>
       <use xlink:href="#SimHei-30" transform="translate(100 0)"/>
      </g>
     </g>
    </g>
   </g>
   <g id="line2d_23">
    <path d="M 21.2 340.035158 
L 86.191351 339.266632 
L 103.442142 338.681313 
L 111.064585 338.212985 
L 116.681121 337.644892 
L 122.297658 336.854536 
L 131.123644 335.348537 
L 139.147267 333.80737 
L 143.961441 332.65956 
L 147.973253 331.475274 
L 151.583884 330.192261 
L 155.194515 328.677564 
L 158.403964 327.10724 
L 161.613413 325.279879 
L 164.421682 323.419543 
L 167.22995 321.261909 
L 169.637037 319.136952 
L 172.044124 316.726901 
L 174.451211 314.007504 
L 176.858298 310.959366 
L 179.265385 307.567159 
L 181.672472 303.818438 
L 184.07956 299.702515 
L 186.887828 294.423601 
L 189.696096 288.61782 
L 192.504364 282.274517 
L 195.312633 275.389687 
L 198.522082 266.866472 
L 201.731532 257.669705 
L 204.940981 247.834309 
L 208.551612 236.046169 
L 212.162242 223.530118 
L 216.174054 208.846546 
L 221.389409 188.853829 
L 230.616577 153.292998 
L 234.628388 138.788168 
L 238.239019 126.605697 
L 241.448468 116.573631 
L 244.657918 107.32883 
L 247.466186 99.88737 
L 250.274454 93.041508 
L 253.082723 86.7819 
L 255.890991 81.102836 
L 258.298078 76.694608 
L 260.705165 72.706469 
L 263.112252 69.128721 
L 265.519339 65.942939 
L 267.926426 63.120861 
L 270.333514 60.625711 
L 272.740601 58.415556 
L 275.548869 56.140333 
L 278.357137 54.132881 
L 281.566587 52.102073 
L 285.177217 50.08971 
L 288.787848 48.321445 
L 292.79966 46.61591 
L 296.811471 45.16885 
L 300.823283 43.960836 
L 305.236276 42.865369 
L 310.451632 41.804777 
L 316.870531 40.72903 
L 324.894154 39.618317 
L 332.917778 38.726816 
L 340.54022 38.101748 
L 348.563844 37.670067 
L 358.593373 37.369744 
L 375.844164 37.111285 
L 396.705586 37.017304 
L 413.956376 36.842847 
L 421.98 36.716055 
L 421.98 36.716055 
" clip-path="url(#p884ea3cfa8)" style="fill: none; stroke: #f18f01; stroke-width: 1.5; stroke-linecap: square"/>
   </g>
   <g id="line2d_24">
    <path d="M 21.2 340.542413 
L 86.191351 340.431468 
L 99.43033 340.191758 
L 108.256316 339.828858 
L 115.076396 339.344303 
L 120.692933 338.742822 
L 125.908288 337.958586 
L 130.321281 337.075221 
L 134.333093 336.055324 
L 137.943724 334.926514 
L 141.554354 333.564366 
L 144.763804 332.129471 
L 147.973253 330.456641 
L 151.182703 328.518882 
L 154.392152 326.288577 
L 157.20042 324.075247 
L 160.008689 321.5983 
L 162.816957 318.839907 
L 165.625225 315.783128 
L 168.433493 312.412271 
L 171.241762 308.713262 
L 174.05003 304.674029 
L 176.858298 300.284873 
L 180.067748 294.831421 
L 183.277197 288.906483 
L 186.486647 282.510422 
L 189.696096 275.649889 
L 193.306727 267.393408 
L 196.917357 258.595336 
L 200.929169 248.233765 
L 205.342162 236.20597 
L 210.557518 221.294291 
L 216.976416 202.221832 
L 234.227207 150.581342 
L 239.442563 135.882977 
L 243.855556 124.084137 
L 247.867367 113.962489 
L 251.477998 105.400807 
L 255.088629 97.395076 
L 258.699259 89.969665 
L 261.908709 83.867684 
L 265.118158 78.237764 
L 268.327608 73.076569 
L 271.537057 68.375306 
L 274.345325 64.628382 
L 277.153594 61.211465 
L 279.961862 58.110745 
L 282.77013 55.310738 
L 285.578398 52.794658 
L 288.386667 50.544785 
L 291.596116 48.275957 
L 294.805566 46.303148 
L 298.015015 44.598695 
L 301.224464 43.135502 
L 304.835095 41.745313 
L 308.445726 40.592227 
L 312.457538 39.549408 
L 316.870531 38.645243 
L 321.684705 37.894688 
L 327.301241 37.261408 
L 333.72014 36.773615 
L 341.743764 36.403944 
L 352.174474 36.160818 
L 368.622903 36.027247 
L 409.944565 35.990516 
L 421.98 35.990206 
L 421.98 35.990206 
" clip-path="url(#p884ea3cfa8)" style="fill: none; stroke-dasharray: 5.55,2.4; stroke-dashoffset: 0; stroke: #2e86ab; stroke-opacity: 0.8; stroke-width: 1.5"/>
   </g>
   <g id="patch_3">
    <path d="M 21.2 340.5425 
L 21.2 20.7625 
" style="fill: none; stroke: #000000; stroke-width: 0.6; stroke-linejoin: miter; stroke-linecap: square"/>
   </g>
   <g id="patch_4">
    <path d="M 421.98 340.5425 
L 421.98 20.7625 
" style="fill: none; stroke: #000000; stroke-width: 0.6; stroke-linejoin: miter; stroke-linecap: square"/>
   </g>
   <g id="patch_5">
    <path d="M 21.2 340.5425 
L 421.98 340.5425 
" style="fill: none; stroke: #000000; stroke-width: 0.6; stroke-linejoin: miter; stroke-linecap: square"/>
   </g>
   <g id="patch_6">
    <path d="M 21.2 20.7625 
L 421.98 20.7625 
" style="fill: none; stroke: #000000; stroke-width: 0.6; stroke-linejoin: miter; stroke-linecap: square"/>
   </g>
   <g id="text_12">
    <!-- CDF of Returns 20251110 ETH -->
    <g transform="translate(147.34 14.7625) scale(0.11 -0.11)">
     <defs>
      <path id="SimHei-43" d="M 2975 1825 
Q 2950 875 2575 475 
Q 2200 75 1675 75 
Q 1075 75 650 562 
Q 225 1050 225 2125 
Q 225 3300 637 3875 
Q 1050 4450 1700 4450 
Q 2250 4450 2612 4037 
Q 2975 3625 2950 2875 
L 2400 2875 
Q 2400 3425 2225 3700 
Q 2050 3975 1700 3975 
Q 1300 3975 1062 3562 
Q 825 3150 825 2175 
Q 825 1275 1062 912 
Q 1300 550 1675 550 
Q 1950 550 2175 812 
Q 2400 1075 2400 1825 
L 2975 1825 
z
" transform="scale(0.015625)"/>
      <path id="SimHei-44" d="M 2925 2250 
Q 2925 1100 2437 612 
Q 1950 125 1125 125 
L 275 125 
L 275 4400 
L 1125 4400 
Q 2050 4400 2487 3900 
Q 2925 3400 2925 2250 
z
M 2325 2250 
Q 2325 3175 2025 3550 
Q 1725 3925 1125 3925 
L 850 3925 
L 850 600 
L 1125 600 
Q 1725 600 2025 962 
Q 2325 1325 2325 2250 
z
" transform="scale(0.015625)"/>
      <path id="SimHei-46" d="M 2925 3925 
L 875 3925 
L 875 2525 
L 2425 2525 
L 2425 2050 
L 875 2050 
L 875 125 
L 300 125 
L 300 4400 
L 2925 4400 
L 2925 3925 
z
" transform="scale(0.015625)"/>
      <path id="SimHei-20" transform="scale(0.015625)"/>
      <path id="SimHei-6f" d="M 2925 1525 
Q 2925 875 2525 475 
Q 2125 75 1575 75 
Q 1025 75 625 475 
Q 225 875 225 1525 
Q 225 2175 625 2575 
Q 1025 2975 1575 2975 
Q 2125 2975 2525 2575 
Q 2925 2175 2925 1525 
z
M 2375 1525 
Q 2375 2025 2125 2275 
Q 1875 2525 1575 2525 
Q 1275 2525 1025 2275 
Q 775 2025 775 1525 
Q 775 1025 1025 775 
Q 1275 525 1575 525 
Q 1875 525 2125 775 
Q 2375 1025 2375 1525 
z
" transform="scale(0.015625)"/>
      <path id="SimHei-66" d="M 2850 3825 
Q 2725 3900 2550 3950 
Q 2375 4000 2100 4000 
Q 1825 4000 1725 3862 
Q 1625 3725 1625 3525 
L 1625 2925 
L 2650 2925 
L 2650 2525 
L 1625 2525 
L 1625 125 
L 1125 125 
L 1125 2525 
L 275 2525 
L 275 2925 
L 1125 2925 
L 1125 3500 
Q 1125 3950 1400 4200 
Q 1675 4450 2125 4450 
Q 2400 4450 2562 4412 
Q 2725 4375 2850 4325 
L 2850 3825 
z
" transform="scale(0.015625)"/>
      <path id="SimHei-52" d="M 3000 125 
L 2400 125 
L 1500 1975 
L 850 1975 
L 850 125 
L 275 125 
L 275 4400 
L 1525 4400 
Q 2125 4400 2500 4112 
Q 2875 3825 2875 3175 
Q 2875 2675 2625 2400 
Q 2375 2125 2050 2050 
L 3000 125 
z
M 2300 3175 
Q 2300 3525 2087 3725 
Q 1875 3925 1400 3925 
L 850 3925 
L 850 2450 
L 1550 2450 
Q 1850 2450 2075 2612 
Q 2300 2775 2300 3175 
z
" transform="scale(0.015625)"/>
      <path id="SimHei-65" d="M 2850 1075 
Q 2800 625 2450 350 
Q 2100 75 1625 75 
Q 1025 75 637 462 
Q 250 850 250 1525 
Q 250 2200 637 2587 
Q 1025 2975 1625 2975 
Q 2150 2975 2487 2637 
Q 2825 2300 2825 1525 
L 800 1525 
Q 800 975 1037 750 
Q 1275 525 1625 525 
Q 1900 525 2075 662 
Q 2250 800 2300 1075 
L 2850 1075 
z
M 2250 1925 
Q 2200 2275 2025 2412 
Q 1850 2550 1575 2550 
Q 1325 2550 1125 2412 
Q 925 2275 825 1925 
L 2250 1925 
z
" transform="scale(0.015625)"/>
      <path id="SimHei-74" d="M 2750 200 
Q 2625 150 2462 112 
Q 2300 75 2025 75 
Q 1575 75 1300 325 
Q 1025 575 1025 1025 
L 1025 2525 
L 175 2525 
L 175 2925 
L 1025 2925 
L 1025 3900 
L 1525 3900 
L 1525 2925 
L 2550 2925 
L 2550 2525 
L 1525 2525 
L 1525 1000 
Q 1525 800 1625 662 
Q 1725 525 2000 525 
Q 2275 525 2450 575 
Q 2625 625 2750 700 
L 2750 200 
z
" transform="scale(0.015625)"/>
      <path id="SimHei-75" d="M 2800 125 
L 2300 125 
L 2300 650 
Q 2100 375 1862 225 
Q 1625 75 1250 75 
Q 800 75 575 325 
Q 350 575 350 950 
L 350 2925 
L 850 2925 
L 850 1125 
Q 850 825 1000 650 
Q 1150 475 1400 475 
Q 1725 475 2012 812 
Q 2300 1150 2300 1650 
L 2300 2925 
L 2800 2925 
L 2800 125 
z
" transform="scale(0.015625)"/>
      <path id="SimHei-72" d="M 2500 2425 
Q 2025 2500 1700 2287 
Q 1375 2075 1150 1550 
L 1150 125 
L 650 125 
L 650 2925 
L 1150 2925 
L 1150 2200 
Q 1375 2600 1712 2787 
Q 2050 2975 2500 2975 
L 2500 2425 
z
" transform="scale(0.015625)"/>
      <path id="SimHei-6e" d="M 2800 125 
L 2300 125 
L 2300 1925 
Q 2300 2225 2150 2400 
Q 2000 2575 1750 2575 
Q 1425 2575 1137 2237 
Q 850 1900 850 1400 
L 850 125 
L 350 125 
L 350 2925 
L 850 2925 
L 850 2400 
Q 1050 2675 1287 2825 
Q 1525 2975 1900 2975 
Q 2350 2975 2575 2725 
Q 2800 2475 2800 2100 
L 2800 125 
z
" transform="scale(0.015625)"/>
      <path id="SimHei-73" d="M 2750 900 
Q 2750 500 2437 287 
Q 2125 75 1650 75 
Q 1050 75 725 312 
Q 400 550 400 1000 
L 900 1000 
Q 900 700 1112 600 
Q 1325 500 1625 500 
Q 1925 500 2075 612 
Q 2225 725 2225 900 
Q 2225 1025 2100 1150 
Q 1975 1275 1475 1350 
Q 900 1425 687 1637 
Q 475 1850 475 2200 
Q 475 2500 762 2737 
Q 1050 2975 1600 2975 
Q 2100 2975 2387 2750 
Q 2675 2525 2675 2150 
L 2175 2150 
Q 2175 2375 2012 2462 
Q 1850 2550 1600 2550 
Q 1275 2550 1137 2437 
Q 1000 2325 1000 2175 
Q 1000 2000 1125 1900 
Q 1250 1800 1650 1750 
Q 2300 1650 2525 1437 
Q 2750 1225 2750 900 
z
" transform="scale(0.015625)"/>
      <path id="SimHei-35" d="M 550 1325 
Q 725 650 1150 575 
Q 1575 500 1837 662 
Q 2100 825 2212 1087 
Q 2325 1350 2312 1675 
Q 2300 2000 2137 2225 
Q 1975 2450 1725 2525 
Q 1475 2600 1162 2525 
Q 850 2450 650 2175 
L 225 2225 
Q 275 2375 700 4375 
L 2675 4375 
L 2675 3925 
L 1075 3925 
Q 950 3250 825 2850 
Q 1200 3025 1525 3012 
Q 1850 3000 2150 2862 
Q 2450 2725 2587 2487 
Q 2725 2250 2787 2012 
Q 2850 1775 2837 1500 
Q 2825 1225 2725 937 
Q 2625 650 2425 462 
Q 2225 275 1937 162 
Q 1650 50 1275 75 
Q 900 100 562 350 
Q 225 600 100 1200 
L 550 1325 
z
" transform="scale(0.015625)"/>
      <path id="SimHei-45" d="M 2900 125 
L 350 125 
L 350 4400 
L 2775 4400 
L 2775 3925 
L 925 3925 
L 925 2600 
L 2625 2600 
L 2625 2125 
L 925 2125 
L 925 600 
L 2900 600 
L 2900 125 
z
" transform="scale(0.015625)"/>
      <path id="SimHei-54" d="M 2850 3925 
L 1850 3925 
L 1850 125 
L 1275 125 
L 1275 3925 
L 275 3925 
L 275 4400 
L 2850 4400 
L 2850 3925 
z
" transform="scale(0.015625)"/>
      <path id="SimHei-48" d="M 2850 125 
L 2275 125 
L 2275 2125 
L 850 2125 
L 850 125 
L 275 125 
L 275 4400 
L 850 4400 
L 850 2600 
L 2275 2600 
L 2275 4400 
L 2850 4400 
L 2850 125 
z
" transform="scale(0.015625)"/>
     </defs>
     <use xlink:href="#SimHei-43"/>
     <use xlink:href="#SimHei-44" transform="translate(50 0)"/>
     <use xlink:href="#SimHei-46" transform="translate(100 0)"/>
     <use xlink:href="#SimHei-20" transform="translate(150 0)"/>
     <use xlink:href="#SimHei-6f" transform="translate(200 0)"/>
     <use xlink:href="#SimHei-66" transform="translate(250 0)"/>
     <use xlink:href="#SimHei-20" transform="translate(300 0)"/>
     <use xlink:href="#SimHei-52" transform="translate(350 0)"/>
     <use xlink:href="#SimHei-65" transform="translate(400 0)"/>
     <use xlink:href="#SimHei-74" transform="translate(450 0)"/>
     <use xlink:href="#SimHei-75" transform="translate(500 0)"/>
     <use xlink:href="#SimHei-72" transform="translate(550 0)"/>
     <use xlink:href="#SimHei-6e" transform="translate(600 0)"/>
     <use xlink:href="#SimHei-73" transform="translate(650 0)"/>
     <use xlink:href="#SimHei-20" transform="translate(700 0)"/>
     <use xlink:href="#SimHei-32" transform="translate(750 0)"/>
     <use xlink:href="#SimHei-30" transform="translate(800 0)"/>
     <use xlink:href="#SimHei-32" transform="translate(850 0)"/>
     <use xlink:href="#SimHei-35" transform="translate(900 0)"/>
     <use xlink:href="#SimHei-31" transform="translate(950 0)"/>
     <use xlink:href="#SimHei-31" transform="translate(1000 0)"/>
     <use xlink:href="#SimHei-31" transform="translate(1050 0)"/>
     <use xlink:href="#SimHei-30" transform="translate(1100 0)"/>
     <use xlink:href="#SimHei-20" transform="translate(1150 0)"/>
     <use xlink:href="#SimHei-45" transform="translate(1200 0)"/>
     <use xlink:href="#SimHei-54" transform="translate(1250 0)"/>
     <use xlink:href="#SimHei-48" transform="translate(1300 0)"/>
    </g>
   </g>
   <g id="legend_1">
    <g id="patch_7">
     <path d="M 28.8 51.7625 
L 174.56 51.7625 
Q 176.16 51.7625 176.16 50.1625 
L 176.16 28.3625 
Q 176.16 26.7625 174.56 26.7625 
L 28.8 26.7625 
Q 27.2 26.7625 27.2 28.3625 
L 27.2 50.1625 
Q 27.2 51.7625 28.8 51.7625 
z
" style="fill: #4d4d4d; opacity: 0.5; stroke: #4d4d4d; stroke-linejoin: miter"/>
    </g>
    <g id="patch_8">
     <path d="M 26.8 49.7625 
L 172.56 49.7625 
Q 174.16 49.7625 174.16 48.1625 
L 174.16 26.3625 
Q 174.16 24.7625 172.56 24.7625 
L 26.8 24.7625 
Q 25.2 24.7625 25.2 26.3625 
L 25.2 48.1625 
Q 25.2 49.7625 26.8 49.7625 
z
" style="fill: #ffffff; stroke: #cccccc; stroke-linejoin: miter"/>
    </g>
    <g id="line2d_25">
     <path d="M 28.4 30.7625 
L 36.4 30.7625 
L 44.4 30.7625 
" style="fill: none; stroke: #f18f01; stroke-width: 1.5; stroke-linecap: square"/>
    </g>
    <g id="text_13">
     <!-- Simulated Historcal Return -->
     <g transform="translate(50.8 33.5625) scale(0.08 -0.08)">
      <defs>
       <path id="SimHei-53" d="M 2900 1325 
Q 2900 750 2537 412 
Q 2175 75 1550 75 
Q 925 75 575 425 
Q 225 775 225 1300 
L 225 1475 
L 800 1475 
L 800 1325 
Q 800 950 1025 750 
Q 1250 550 1550 550 
Q 1950 550 2137 762 
Q 2325 975 2325 1275 
Q 2325 1525 2100 1737 
Q 1875 1950 1450 2125 
Q 850 2350 587 2625 
Q 325 2900 325 3275 
Q 325 3800 687 4125 
Q 1050 4450 1550 4450 
Q 2200 4450 2487 4062 
Q 2775 3675 2775 3225 
L 2200 3225 
Q 2225 3500 2050 3725 
Q 1875 3950 1550 3950 
Q 1250 3950 1075 3787 
Q 900 3625 900 3350 
Q 900 3125 1037 2962 
Q 1175 2800 1750 2575 
Q 2300 2350 2600 2037 
Q 2900 1725 2900 1325 
z
" transform="scale(0.015625)"/>
       <path id="SimHei-69" d="M 1800 3725 
L 1300 3725 
L 1300 4375 
L 1800 4375 
L 1800 3725 
z
M 1800 125 
L 1300 125 
L 1300 2925 
L 1800 2925 
L 1800 125 
z
" transform="scale(0.015625)"/>
       <path id="SimHei-6d" d="M 3050 125 
L 2550 125 
L 2550 2150 
Q 2550 2300 2500 2400 
Q 2450 2500 2300 2500 
Q 2125 2500 1975 2312 
Q 1825 2125 1825 1825 
L 1825 125 
L 1325 125 
L 1325 2150 
Q 1325 2300 1275 2400 
Q 1225 2500 1075 2500 
Q 900 2500 750 2312 
Q 600 2125 600 1825 
L 600 125 
L 100 125 
L 100 2925 
L 600 2925 
L 600 2550 
Q 725 2750 900 2862 
Q 1075 2975 1275 2975 
Q 1475 2975 1612 2862 
Q 1750 2750 1800 2550 
Q 1925 2750 2087 2862 
Q 2250 2975 2450 2975 
Q 2750 2975 2900 2812 
Q 3050 2650 3050 2350 
L 3050 125 
z
" transform="scale(0.015625)"/>
       <path id="SimHei-6c" d="M 1825 125 
L 1325 125 
L 1325 4400 
L 1825 4400 
L 1825 125 
z
" transform="scale(0.015625)"/>
       <path id="SimHei-61" d="M 2875 125 
L 2275 125 
Q 2225 175 2200 262 
Q 2175 350 2175 475 
Q 2000 275 1750 175 
Q 1500 75 1225 75 
Q 825 75 550 275 
Q 275 475 275 850 
Q 275 1225 525 1450 
Q 775 1675 1300 1750 
Q 1650 1800 1912 1875 
Q 2175 1950 2175 2075 
Q 2175 2225 2062 2375 
Q 1950 2525 1575 2525 
Q 1275 2525 1137 2412 
Q 1000 2300 950 2100 
L 400 2100 
Q 450 2500 762 2737 
Q 1075 2975 1575 2975 
Q 2125 2975 2400 2725 
Q 2675 2475 2675 2025 
L 2675 650 
Q 2675 500 2725 375 
Q 2775 250 2875 125 
z
M 2175 1050 
L 2175 1550 
Q 2025 1500 1887 1462 
Q 1750 1425 1425 1375 
Q 1050 1325 937 1200 
Q 825 1075 825 900 
Q 825 750 937 637 
Q 1050 525 1275 525 
Q 1500 525 1762 650 
Q 2025 775 2175 1050 
z
" transform="scale(0.015625)"/>
       <path id="SimHei-64" d="M 2750 125 
L 2250 125 
L 2250 500 
Q 2100 275 1900 175 
Q 1700 75 1425 75 
Q 925 75 575 437 
Q 225 800 225 1525 
Q 225 2250 575 2625 
Q 925 3000 1425 3000 
Q 1700 3000 1900 2887 
Q 2100 2775 2250 2550 
L 2250 4400 
L 2750 4400 
L 2750 125 
z
M 2250 1525 
Q 2250 2000 2037 2275 
Q 1825 2550 1525 2550 
Q 1150 2550 962 2275 
Q 775 2000 775 1525 
Q 775 1050 962 787 
Q 1150 525 1525 525 
Q 1825 525 2037 787 
Q 2250 1050 2250 1525 
z
" transform="scale(0.015625)"/>
       <path id="SimHei-63" d="M 2850 1250 
Q 2850 725 2487 400 
Q 2125 75 1575 75 
Q 1025 75 625 462 
Q 225 850 225 1525 
Q 225 2200 625 2587 
Q 1025 2975 1575 2975 
Q 2125 2975 2450 2687 
Q 2775 2400 2775 2000 
L 2225 2000 
Q 2200 2300 2012 2412 
Q 1825 2525 1575 2525 
Q 1275 2525 1025 2287 
Q 775 2050 775 1525 
Q 775 1000 1025 762 
Q 1275 525 1575 525 
Q 1900 525 2100 700 
Q 2300 875 2300 1250 
L 2850 1250 
z
" transform="scale(0.015625)"/>
      </defs>
      <use xlink:href="#SimHei-53"/>
      <use xlink:href="#SimHei-69" transform="translate(50 0)"/>
      <use xlink:href="#SimHei-6d" transform="translate(100 0)"/>
      <use xlink:href="#SimHei-75" transform="translate(150 0)"/>
      <use xlink:href="#SimHei-6c" transform="translate(200 0)"/>
      <use xlink:href="#SimHei-61" transform="translate(250 0)"/>
      <use xlink:href="#SimHei-74" transform="translate(300 0)"/>
      <use xlink:href="#SimHei-65" transform="translate(350 0)"/>
      <use xlink:href="#SimHei-64" transform="translate(400 0)"/>
      <use xlink:href="#SimHei-20" transform="translate(450 0)"/>
      <use xlink:href="#SimHei-48" transform="translate(500 0)"/>
      <use xlink:href="#SimHei-69" transform="translate(550 0)"/>
      <use xlink:href="#SimHei-73" transform="translate(600 0)"/>
      <use xlink:href="#SimHei-74" transform="translate(650 0)"/>
      <use xlink:href="#SimHei-6f" transform="translate(700 0)"/>
      <use xlink:href="#SimHei-72" transform="translate(750 0)"/>
      <use xlink:href="#SimHei-63" transform="translate(800 0)"/>
      <use xlink:href="#SimHei-61" transform="translate(850 0)"/>
      <use xlink:href="#SimHei-6c" transform="translate(900 0)"/>
      <use xlink:href="#SimHei-20" transform="translate(950 0)"/>
      <use xlink:href="#SimHei-52" transform="translate(1000 0)"/>
      <use xlink:href="#SimHei-65" transform="translate(1050 0)"/>
      <use xlink:href="#SimHei-74" transform="translate(1100 0)"/>
      <use xlink:href="#SimHei-75" transform="translate(1150 0)"/>
      <use xlink:href="#SimHei-72" transform="translate(1200 0)"/>
      <use xlink:href="#SimHei-6e" transform="translate(1250 0)"/>
     </g>
    </g>
    <g id="line2d_26">
     <path d="M 28.4 42.0825 
L 36.4 42.0825 
L 44.4 42.0825 
" style="fill: none; stroke-dasharray: 5.55,2.4; stroke-dashoffset: 0; stroke: #2e86ab; stroke-opacity: 0.8; stroke-width: 1.5"/>
    </g>
    <g id="text_14">
     <!-- Normal Reference ($\mu=0, \sigma=1$) -->
     <g transform="translate(50.8 44.8825) scale(0.08 -0.08)">
      <defs>
       <path id="SimHei-4e" d="M 2850 125 
L 2225 125 
L 850 3225 
L 825 3225 
L 825 125 
L 250 125 
L 250 4400 
L 875 4400 
L 2250 1300 
L 2275 1300 
L 2275 4400 
L 2850 4400 
L 2850 125 
z
" transform="scale(0.015625)"/>
       <path id="SimHei-28" d="M 2975 -200 
L 2700 -475 
Q 2075 125 1762 775 
Q 1450 1425 1450 2250 
Q 1450 3075 1762 3725 
Q 2075 4375 2700 5000 
L 2975 4725 
Q 2400 4175 2112 3587 
Q 1825 3000 1825 2250 
Q 1825 1500 2112 912 
Q 2400 325 2975 -200 
z
" transform="scale(0.015625)"/>
       <path id="DejaVuSans-Oblique-3bc" d="M -84 -1331 
L 856 3500 
L 1434 3500 
L 1009 1322 
Q 997 1256 987 1175 
Q 978 1094 978 1013 
Q 978 722 1161 565 
Q 1344 409 1684 409 
Q 2147 409 2431 671 
Q 2716 934 2816 1459 
L 3213 3500 
L 3788 3500 
L 3266 809 
Q 3253 750 3248 706 
Q 3244 663 3244 628 
Q 3244 531 3283 486 
Q 3322 441 3406 441 
Q 3438 441 3492 456 
Q 3547 472 3647 513 
L 3559 50 
Q 3422 -19 3297 -55 
Q 3172 -91 3053 -91 
Q 2847 -91 2730 40 
Q 2613 172 2613 403 
Q 2438 153 2195 31 
Q 1953 -91 1625 -91 
Q 1334 -91 1117 43 
Q 900 178 831 397 
L 494 -1331 
L -84 -1331 
z
" transform="scale(0.015625)"/>
       <path id="DejaVuSans-3d" d="M 678 2906 
L 4684 2906 
L 4684 2381 
L 678 2381 
L 678 2906 
z
M 678 1631 
L 4684 1631 
L 4684 1100 
L 678 1100 
L 678 1631 
z
" transform="scale(0.015625)"/>
       <path id="DejaVuSans-30" d="M 2034 4250 
Q 1547 4250 1301 3770 
Q 1056 3291 1056 2328 
Q 1056 1369 1301 889 
Q 1547 409 2034 409 
Q 2525 409 2770 889 
Q 3016 1369 3016 2328 
Q 3016 3291 2770 3770 
Q 2525 4250 2034 4250 
z
M 2034 4750 
Q 2819 4750 3233 4129 
Q 3647 3509 3647 2328 
Q 3647 1150 3233 529 
Q 2819 -91 2034 -91 
Q 1250 -91 836 529 
Q 422 1150 422 2328 
Q 422 3509 836 4129 
Q 1250 4750 2034 4750 
z
" transform="scale(0.015625)"/>
       <path id="DejaVuSans-2c" d="M 750 794 
L 1409 794 
L 1409 256 
L 897 -744 
L 494 -744 
L 750 256 
L 750 794 
z
" transform="scale(0.015625)"/>
       <path id="DejaVuSans-Oblique-3c3" d="M 2219 3044 
Q 1744 3044 1422 2700 
Q 1081 2341 969 1747 
Q 844 1119 1044 756 
Q 1241 397 1706 397 
Q 2166 397 2503 759 
Q 2844 1122 2966 1747 
Q 3075 2319 2881 2700 
Q 2700 3044 2219 3044 
z
M 2309 3503 
L 4219 3500 
L 4106 2925 
L 3463 2925 
Q 3706 2438 3575 1747 
Q 3406 888 2884 400 
Q 2359 -91 1609 -91 
Q 856 -91 525 400 
Q 194 888 363 1747 
Q 528 2609 1050 3097 
Q 1484 3503 2309 3503 
z
" transform="scale(0.015625)"/>
       <path id="DejaVuSans-31" d="M 794 531 
L 1825 531 
L 1825 4091 
L 703 3866 
L 703 4441 
L 1819 4666 
L 2450 4666 
L 2450 531 
L 3481 531 
L 3481 0 
L 794 0 
L 794 531 
z
" transform="scale(0.015625)"/>
       <path id="SimHei-29" d="M 1675 2250 
Q 1675 1425 1362 775 
Q 1050 125 425 -475 
L 150 -200 
Q 725 325 1012 912 
Q 1300 1500 1300 2250 
Q 1300 3000 1012 3587 
Q 725 4175 150 4725 
L 425 5000 
Q 1050 4375 1362 3725 
Q 1675 3075 1675 2250 
z
" transform="scale(0.015625)"/>
      </defs>
      <use xlink:href="#SimHei-4e" transform="translate(0 0.875)"/>
      <use xlink:href="#SimHei-6f" transform="translate(50 0.875)"/>
      <use xlink:href="#SimHei-72" transform="translate(100 0.875)"/>
      <use xlink:href="#SimHei-6d" transform="translate(150 0.875)"/>
      <use xlink:href="#SimHei-61" transform="translate(200 0.875)"/>
      <use xlink:href="#SimHei-6c" transform="translate(250 0.875)"/>
      <use xlink:href="#SimHei-20" transform="translate(300 0.875)"/>
      <use xlink:href="#SimHei-52" transform="translate(350 0.875)"/>
      <use xlink:href="#SimHei-65" transform="translate(400 0.875)"/>
      <use xlink:href="#SimHei-66" transform="translate(450 0.875)"/>
      <use xlink:href="#SimHei-65" transform="translate(500 0.875)"/>
      <use xlink:href="#SimHei-72" transform="translate(550 0.875)"/>
      <use xlink:href="#SimHei-65" transform="translate(600 0.875)"/>
      <use xlink:href="#SimHei-6e" transform="translate(650 0.875)"/>
      <use xlink:href="#SimHei-63" transform="translate(700 0.875)"/>
      <use xlink:href="#SimHei-65" transform="translate(750 0.875)"/>
      <use xlink:href="#SimHei-20" transform="translate(800 0.875)"/>
      <use xlink:href="#SimHei-28" transform="translate(850 0.875)"/>
      <use xlink:href="#DejaVuSans-Oblique-3bc" transform="translate(900 0.875)"/>
      <use xlink:href="#DejaVuSans-3d" transform="translate(983.105469 0.875)"/>
      <use xlink:href="#DejaVuSans-30" transform="translate(1086.376953 0.875)"/>
      <use xlink:href="#DejaVuSans-2c" transform="translate(1150 0.875)"/>
      <use xlink:href="#DejaVuSans-Oblique-3c3" transform="translate(1201.269531 0.875)"/>
      <use xlink:href="#DejaVuSans-3d" transform="translate(1284.130859 0.875)"/>
      <use xlink:href="#DejaVuSans-31" transform="translate(1387.402344 0.875)"/>
      <use xlink:href="#SimHei-29" transform="translate(1451.025391 0.875)"/>
     </g>
    </g>
   </g>
  </g>
 </g>
 <defs>
  <clipPath id="p884ea3cfa8">
   <rect x="21.2" y="20.7625" width="400.78" height="319.78"/>
  </clipPath>
 </defs>
</svg>
